<svg xmlns="http://www.w3.org/2000/svg" height="595pt" version="1.1" viewBox="0 -15 595.238 595" width="595pt">
<g id="surface1">
<path d="M 565.25 10.03125 L 29.75 10.03125 C 18.808594 10.0625 9.949219 18.921875 9.917969 29.863281 L 9.917969 307.53125 L 59.5 307.53125 L 59.5 297.613281 C 59.5 286.660156 68.378906 277.78125 79.332031 277.78125 L 257.832031 277.78125 C 268.785156 277.78125 277.664062 286.660156 277.664062 297.613281 L 277.664062 307.53125 L 585.082031 307.53125 L 585.082031 29.863281 C 585.050781 18.921875 576.191406 10.0625 565.25 10.03125 Z M 565.25 10.03125 " style=" stroke:none;fill-rule:nonzero;fill:rgb(20%,54.117647%,95.294118%);fill-opacity:1;" />
<path d="M 277.667969 317.445312 L 277.667969 367.027344 L 416.5 367.027344 L 416.5 357.113281 C 416.5 346.160156 425.378906 337.277344 436.332031 337.277344 L 515.667969 337.277344 C 526.621094 337.277344 535.5 346.160156 535.5 357.113281 L 535.5 367.027344 L 585.082031 367.027344 L 585.082031 307.527344 L 277.664062 307.527344 L 277.664062 317.445312 Z M 277.667969 317.445312 " style=" stroke:none;fill-rule:nonzero;fill:rgb(100%,93.72549%,67.843137%);fill-opacity:1;" />
<path d="M 277.667969 446.363281 L 357 446.363281 L 337.167969 367.027344 L 277.667969 367.027344 Z M 277.667969 446.363281 " style=" stroke:none;fill-rule:nonzero;fill:rgb(87.058824%,86.666667%,87.843137%);fill-opacity:1;" />
<path d="M 59.5 307.53125 L 9.917969 307.53125 L 9.917969 367.03125 L 59.5 367.03125 Z M 59.5 307.53125 " style=" stroke:none;fill-rule:nonzero;fill:rgb(100%,93.72549%,67.843137%);fill-opacity:1;" />
<path d="M 277.667969 317.445312 L 59.5 317.445312 L 59.5 515.78125 L 277.667969 515.78125 Z M 277.667969 317.445312 " style=" stroke:none;fill-rule:nonzero;fill:rgb(20%,54.117647%,95.294118%);fill-opacity:1;" />
<path d="M 59.5 535.613281 C 59.5 546.566406 68.378906 555.445312 79.332031 555.445312 L 257.832031 555.445312 C 268.785156 555.445312 277.664062 546.566406 277.664062 535.613281 L 277.664062 515.78125 L 59.5 515.78125 Z M 59.5 535.613281 " style=" stroke:none;fill-rule:nonzero;fill:rgb(87.843137%,20%,32.156863%);fill-opacity:1;" />
<path d="M 277.667969 317.445312 L 277.667969 297.613281 C 277.667969 286.660156 268.789062 277.78125 257.832031 277.78125 L 79.332031 277.78125 C 68.378906 277.78125 59.5 286.660156 59.5 297.613281 L 59.5 317.445312 Z M 277.667969 317.445312 " style=" stroke:none;fill-rule:nonzero;fill:rgb(87.843137%,20%,32.156863%);fill-opacity:1;" />
<path d="M 416.5 367.027344 L 535.5 367.027344 L 535.5 525.695312 L 416.5 525.695312 Z M 416.5 367.027344 " style=" stroke:none;fill-rule:nonzero;fill:rgb(20%,54.117647%,95.294118%);fill-opacity:1;" />
<path d="M 416.5 535.613281 C 416.5 546.566406 425.378906 555.445312 436.332031 555.445312 L 515.667969 555.445312 C 526.621094 555.445312 535.5 546.566406 535.5 535.613281 L 535.5 525.695312 L 416.5 525.695312 Z M 416.5 535.613281 " style=" stroke:none;fill-rule:nonzero;fill:rgb(87.843137%,20%,32.156863%);fill-opacity:1;" />
<path d="M 515.667969 337.28125 L 436.332031 337.28125 C 425.378906 337.28125 416.5 346.160156 416.5 357.113281 L 416.5 367.03125 L 535.5 367.03125 L 535.5 357.113281 C 535.5 346.160156 526.621094 337.28125 515.667969 337.28125 Z M 515.667969 337.28125 " style=" stroke:none;fill-rule:nonzero;fill:rgb(87.843137%,20%,32.156863%);fill-opacity:1;" />
<path d="M 565.25 0.113281 L 29.75 0.113281 C 13.320312 0.113281 0 13.433594 0 29.863281 L 0 367.03125 C 0 372.507812 4.441406 376.949219 9.917969 376.949219 L 49.585938 376.949219 L 49.585938 535.613281 C 49.585938 552.042969 62.902344 565.363281 79.335938 565.363281 L 257.832031 565.363281 C 274.265625 565.363281 287.582031 552.042969 287.582031 535.613281 L 287.582031 456.28125 L 386.75 456.28125 L 386.75 436.445312 L 364.746094 436.445312 L 349.871094 376.945312 L 406.582031 376.945312 L 406.582031 535.613281 C 406.582031 552.042969 419.902344 565.363281 436.332031 565.363281 L 515.667969 565.363281 C 532.097656 565.363281 545.417969 552.042969 545.417969 535.613281 L 545.417969 376.945312 L 585.082031 376.945312 C 590.558594 376.945312 595 372.507812 595 367.027344 L 595 29.863281 C 595 13.433594 581.679688 0.113281 565.25 0.113281 Z M 29.75 19.945312 L 565.25 19.945312 C 570.726562 19.945312 575.167969 24.386719 575.167969 29.863281 L 575.167969 297.613281 L 287.582031 297.613281 C 287.582031 281.183594 274.261719 267.863281 257.832031 267.863281 L 79.332031 267.863281 C 62.902344 267.863281 49.582031 281.183594 49.582031 297.613281 L 19.832031 297.613281 L 19.832031 29.863281 C 19.832031 24.386719 24.273438 19.945312 29.75 19.945312 Z M 267.75 307.53125 L 69.417969 307.53125 L 69.417969 297.613281 C 69.417969 292.136719 73.855469 287.695312 79.332031 287.695312 L 257.832031 287.695312 C 263.308594 287.695312 267.75 292.136719 267.75 297.613281 Z M 69.417969 327.363281 L 267.75 327.363281 L 267.75 505.863281 L 69.417969 505.863281 Z M 19.832031 357.113281 L 19.832031 317.445312 L 49.582031 317.445312 L 49.582031 357.113281 Z M 257.832031 545.53125 L 79.332031 545.53125 C 73.855469 545.53125 69.417969 541.089844 69.417969 535.613281 L 69.417969 525.695312 L 267.75 525.695312 L 267.75 535.613281 C 267.75 541.089844 263.3125 545.53125 257.832031 545.53125 Z M 344.296875 436.445312 L 287.582031 436.445312 L 287.582031 376.945312 L 329.421875 376.945312 Z M 426.417969 357.113281 C 426.417969 351.636719 430.855469 347.195312 436.332031 347.195312 L 515.667969 347.195312 C 521.144531 347.195312 525.582031 351.636719 525.582031 357.113281 Z M 525.582031 376.945312 L 525.582031 515.78125 L 426.417969 515.78125 L 426.417969 376.945312 Z M 515.667969 545.53125 L 436.332031 545.53125 C 430.855469 545.53125 426.417969 541.089844 426.417969 535.613281 L 525.582031 535.613281 C 525.582031 541.089844 521.144531 545.53125 515.667969 545.53125 Z M 545.417969 357.113281 C 545.417969 340.683594 532.097656 327.363281 515.667969 327.363281 L 436.332031 327.363281 C 419.902344 327.363281 406.582031 340.683594 406.582031 357.113281 L 287.582031 357.113281 L 287.582031 317.445312 L 575.164062 317.445312 L 575.164062 357.113281 Z M 545.417969 357.113281 " style=" stroke:none;fill-rule:nonzero;fill:rgb(13.72549%,12.156863%,12.54902%);fill-opacity:1;" />
</g>
</svg>