<svg id="Capa_1" enable-background="new 0 0 512.001 512.001" height="512" viewBox="0 0 512.001 512.001" width="512" xmlns="http://www.w3.org/2000/svg"><g><g><path d="m154.279 19.629-.045-14.264-98.891.475.016 13.789z" fill="#a07575"/><path d="m491.392 153.347 15.244-.048-.475-98.891-14.769.017z" fill="#efc5b4"/><path d="m337.007 147.134v-92.538l-76.199.084c-5.489-17.188-21.6-29.622-40.605-29.59l-149.038-4.875s-14.658 5.484-15.111 15.386c-.453 9.903 6.177 18.981 6.177 18.981-10.761.019-19.469 8.758-19.451 19.519.018 10.761-21.05 28.705-21.031 39.933.019 11.229 9.138 20.316 20.367 20.297 0 0-4.789 14.532-4.244 25.8.552 11.418 10.366 20.16 21.771 19.395l76.413-6.449 5.73-.902.219-.058.019 10.939c.023 13.445 11.042 24.425 24.487 24.402 14.059 2.007 46.227-11.981 60.249-14.796 18.193-4.264 33.378-19.73 35.85-38.595l47.624-.15c8.451-3.755 17.447-6.097 26.773-6.783z" fill="#efc5b4"/><path d="m357.54 489.316.054 17.32 98.892-.476-.019-16.844z" fill="#c49a8b"/><path d="m475.292 56.054c-9.903-.453-58.066-14.008-58.066-14.008-.019-11.229-9.138-20.316-20.367-20.297-11.229.02-20.316 9.138-20.297 20.367 0 0-14.532-4.789-25.8-4.244-11.418.552-20.16 10.366-19.395 21.771l6.449 76.413.902 5.73.058.219-10.939.019c-13.444.023-24.425 11.042-24.402 24.486-2.006 14.059 11.981 46.228 14.796 60.249 4.264 18.194 19.73 33.378 38.595 35.85l.14 44.41c4.892 8.296 8.397 17.159 11.199 26.279h88.131l-.08-72.49c17.187-5.49 29.622-21.601 29.589-40.605l4.875-149.039c-.001.001-5.485-14.657-15.388-15.11z" fill="#c49a8b"/><path d="m22.521 357.776-17.156.054.475 98.891 16.681-.018z" fill="#f3d4d2"/><path d="m469.884 376.798c7.682-7.96.821-42.865-17.527-45.196l-76.413 6.449-5.73.902-.219.058-.019-10.939c-.023-13.445-11.042-24.426-24.487-24.402-14.059-2.006-46.227 11.981-60.249 14.796-18.194 4.264-33.378 19.73-35.85 38.595l-42.89.135c-1.287.95-2.583 1.885-3.89 2.791-6.549 4.538-13.839 8.857-21.622 11.111v85.431l70.203-.077c5.489 17.187 21.6 29.622 40.605 29.589l149.039 4.875s28.403-43.125 28.385-53.886c-.018-10.761.734-19.567.734-19.567 11.229-.019 20.316-9.138 20.297-20.367-.019-11.23-9.138-20.317-20.367-20.298z" fill="#f3d4d2"/><path d="m193.6 285.241c-4.264-18.194-19.73-33.378-38.595-35.849l-.047-14.955-.102-32.433c-6.852-6.167-10.637-14.761-12.318-23.906h-87.004l.062 55.915.019 17.18c-17.187 5.489-29.622 21.6-29.589 40.605l-4.876 149.038.178.375h-.19l.012-.374-1.724-3.639c-.453 9.903 80.32 44.686 94.638 47.289 11.048 2.009 26.052-4.824 26.032-16.053 2.698 7.195 44.869 5.297 40.366-16.076l-6.449-76.413-.902-5.729-.058-.219 10.939-.019c13.445-.023 24.426-11.043 24.402-24.487.001-.001-13.379-53.091-14.794-60.25z" fill="#a07575"/><path d="m157.209 16.386.011-10.262-98.891-.475-.034 10.737z" fill="#925873"/><path d="m495.634 156.827 10.262.012.475-98.891-10.737-.034z" fill="#d994b3"/><path d="m139.569 175.67 17.907 33.524 62.884-16.033c19.004.033 34.694-19.406 40.183-36.594l44.951.05c7.895-9.63 18.658-16.592 30.592-19.916v-79.291l-59.523-.188-.238 51.167c-.037 7.945-6.534 14.343-14.479 14.258l-1.495-.016c-5.287-.057-10.076 2.859-12.716 7.44-7.273 12.621-21.248 19.971-37.283 19.943l-129.685 3.956-45.419.461c3.184 2.28 2.707 11.661 10.411 19.781 6.824 7.192 67.466-.624 93.91 1.458z" fill="#d994b3"/><path d="m357.547 491.755.047 14.881 98.892-.476-.016-14.405z" fill="#b2748a"/><path d="m475.292 56.054c-9.903-.453-20.347-1.926-22.627-5.11l.952 29.987-3.956 129.685c.028 16.035-7.322 30.01-19.943 37.283-4.581 2.64-7.497 7.429-7.44 12.716l.016 1.495c.085 7.945-6.312 14.442-14.258 14.479l-51.167.238.075 23.648c2.938 10.484 6.873 20.648 10.54 30.895h88.808l-.078-70.563c17.187-5.49 29.622-21.601 29.589-40.605l4.875-149.039 1.724 3.639c.454-9.901-7.207-18.295-17.11-18.748z" fill="#b2748a"/><path d="m19.859 358.684-14.54.046.475 98.891 14.065-.016z" fill="#dba2b3"/><path d="m431.022 454.753-129.686-3.956c-16.035.028-30.01-7.322-37.283-19.943-2.64-4.581-7.429-7.497-12.716-7.44l-1.495.016c-7.945.085-14.442-6.313-14.479-14.258l-.238-51.168-57.94.183v99.244l73.96-.082c5.49 17.187 21.6 29.622 40.605 29.589l149.039 4.875-3.639 1.725c9.903.452 18.297-7.208 18.75-17.111s1.926-20.347 5.109-22.627z" fill="#dba2b3"/><path d="m176.052 372.451 33.524-17.907-16.033-62.884c.033-19.004-19.406-34.694-36.594-40.183l.05-44.951c-9.63-7.895-16.592-18.658-19.916-30.592h-79.291l-.188 59.523 51.167.238c7.946.037 14.343 6.534 14.258 14.479l-.016 1.495c-.057 5.287 2.859 10.076 7.44 12.716 12.622 7.273 19.971 21.248 19.943 37.283.99 32.797 4.719 144.313 4.416 175.104 2.28-3.184 11.661-2.707 19.781-10.411 7.193-6.824-.624-67.466 1.459-93.91z" fill="#925873"/></g><g><path d="m501.982 143.662h-.017l-2.658.004 3.105-68.405c.166-3.638-.381-7.144-1.506-10.392h.977.007c5.53 0 10.016-4.481 10.02-10.013.004-5.533-4.479-10.022-10.012-10.026l-41.286-.029c-.89-1.207-1.878-2.357-2.96-3.435-5.57-5.552-12.964-8.607-20.825-8.607h-.052c-3.672.006-7.189.687-10.433 1.925-1.32-5.296-4.058-10.15-8.024-14.102-5.73-5.71-13.336-8.852-21.423-8.852h-.054c-8.107.014-15.724 3.184-21.446 8.927-3.391 3.403-5.876 7.467-7.336 11.901-5.264-3.354-11.416-5-17.782-4.693-8.231.397-15.782 4.005-21.263 10.158-1.825 2.049-3.336 4.297-4.529 6.682l-56.909-.041c-8.661-17.926-26.766-29.537-47.14-29.594l-55.79-2.532c-.003-.852-.006-1.708-.009-2.56-.023-5.52-4.504-9.978-10.018-9.978h-.042c-5.533.023-10.001 4.526-9.978 10.061.002.521.004 1.046.006 1.568l-69.34-3.147c-3.258-.156-6.454.252-9.48 1.178-.236-5.32-4.609-9.566-9.988-9.57h-.008c-5.53 0-10.015 4.48-10.019 10.012-.011 13.164-.019 26.352-.026 39.539-1.55 1.053-3.022 2.244-4.374 3.602-5.563 5.582-8.619 12.996-8.606 20.876.006 3.627.662 7.153 1.912 10.445-13.186 3.319-22.968 15.29-22.944 29.49.014 8.107 3.184 15.723 8.927 21.446 3.403 3.39 7.467 5.876 11.901 7.336-3.354 5.263-5 11.42-4.693 17.781.398 8.232 4.006 15.784 10.159 21.265 2.318 2.066 4.888 3.737 7.629 4.99-.127 19.062.372 38.652-.682 57.717-10.912 5.46-18.551 12.751-23.256 22.162-1.86 3.719-4.953 17.991-5.062 23.24-.724 18.033-1.995 36.437-3.225 54.238-.073 1.063-.147 2.13-.22 3.196l-3.204.005c-5.536.008-10.015 4.501-10.006 10.035.009 5.528 4.493 10.003 10.02 10.003h.016l1.829-.003c-1.543 24.211-2.715 48.842-2.226 73.295.005.236.018.472.039.706.148 1.63.467 3.233.937 4.794h-.498-.007c-5.53 0-10.015 4.481-10.019 10.013-.004 5.533 4.479 10.022 10.012 10.026l40.73.029c3.81 5.354 9.089 9.447 15.11 11.578 6.412 2.27 13.201 2.225 19.427-.077 8.189 29.49 48.216 29.646 58.487 1.901.461.27.933.527 1.413.772 8.856 4.752 20.501 4.598 29.724-.41 5.886-3.195 10.157-7.992 12.355-13.667l57.079.041c8.66 17.925 26.767 29.535 47.14 29.594l55.622 2.524.006 3.415c.009 5.527 4.493 10.003 10.019 10.003h.017c5.534-.009 10.012-4.502 10.003-10.036l-.004-2.472 69.511 3.155c.438.021.873.03 1.309.03 2.734 0 5.414-.399 7.976-1.162v.37c-.004 5.533 4.479 10.022 10.012 10.026h.007c5.53 0 10.016-4.481 10.02-10.013l.029-40.311c7.932-5.307 13.167-14.339 13.149-24.578-.006-3.671-.687-7.189-1.924-10.432 5.296-1.32 10.15-4.058 14.102-8.023 5.723-5.743 8.867-13.37 8.853-21.476-.014-8.107-3.184-15.724-8.926-21.447-3.408-3.395-7.478-5.882-11.919-7.341 3.26-5.122 5.026-11.264 4.711-17.776-.398-8.231-4.005-15.783-10.158-21.264-2.363-2.106-4.988-3.799-7.79-5.06l.04-56.614c17.926-8.66 29.536-26.767 29.595-47.141l2.575-56.727 3.6-.006c5.534-.009 10.012-4.502 10.003-10.036-.014-5.53-4.498-10.006-10.024-10.006zm-459.902-19.35c-2.748 0-5.332-1.068-7.278-3.008-1.951-1.944-3.028-4.532-3.033-7.286-.01-5.687 4.609-10.322 10.299-10.332l80.123-.172c5.527-.012 10-4.496 9.998-10.023-.002-5.526-4.478-10.008-10.005-10.016l-39.752-.057-20.15.115h-.017c-2.522 0-4.894-.98-6.681-2.761-1.791-1.785-2.78-4.16-2.784-6.688-.009-5.22 4.23-9.474 9.453-9.482l76.564-.166h.036c5.528-.012 10.001-4.498 9.998-10.025-.004-5.527-4.482-10.008-10.01-10.013l-65.397-.066c-2.047-.138-3.929-1.045-5.317-2.566-1.428-1.565-2.16-3.591-2.064-5.707.096-2.115 1.011-4.068 2.576-5.495 1.564-1.429 3.586-2.152 5.71-2.065l145.399 6.6c.152.007.304.011.456.011.025.001.048 0 .073 0 14.215 0 26.664 9.084 30.987 22.619 1.325 4.15 5.181 6.968 9.537 6.971l60.941.043 5.782 68.509-.504-.005c-.042-.001-.085-.001-.123-.001-10.018.018-19.01 4.179-25.15 10.741l-39.154.064c-5.024.008-9.266 3.737-9.919 8.718-1.872 14.294-13.469 26.689-28.201 30.142-1.607.456-31.653 9.2-32.526 9.384-10.12 3.735-25.113 4.969-27.512 5.147-3.622-.094-6.107-2.076-7.566-3.747-2.261-2.589-3.565-6.113-3.584-9.678l.127-12.103c.058-5.533-4.381-10.065-9.914-10.123-2.405.08-84.597 7.745-84.597 7.745-2.785.161-5.462-.759-7.547-2.617-2.104-1.874-3.337-4.456-3.473-7.269-.134-2.777.821-5.439 2.69-7.498 1.868-2.059 4.426-3.266 7.262-3.403l63.543-3.442c5.312-.288 9.473-4.676 9.477-9.996l.001-1.139c.003-2.662-1.055-5.217-2.939-7.098-1.879-1.877-4.425-2.93-7.08-2.93h-.022l-78.713.17h-.02zm284.752 172.007c-8.076 1.294-35.754 10.328-44.148 12.455-19.553 4.687-35.501 19.807-41.299 38.279l-22.972.037c-1.088-20.913-11.379-54.459-19.465-76.333-7.236-14.472-19.575-25.074-33.991-29.573-.04-5.929.059-17.586.029-23.711.127-.003.255-.003.382-.011.55-.035 9.667-.633 19.778-2.647 8.097-1.294 35.758-10.329 44.171-12.461 19.554-4.687 35.502-19.807 41.3-38.279l22.813-.037c-.937 13.342 10.565 49.973 15.109 65.278 4.686 19.553 19.807 35.501 38.279 41.3l.037 23.043c-.833.039-9.673.612-20.023 2.66zm-157.857 161.507c-2.605 9.778-18.907 6.99-19.109-2.37-.341-7.022-2.963-47.429-2.963-60.987 2.175-13.832-20.045-19.61-21.825-3.371.018 13.574.22 63.777-.162 82.052-4.191 10.106-17.939 8.956-20.095-.529.065-27.953.377-55.204-.371-82.905-.016-2.862-1.338-5.646-3.473-7.471-5.992-5.558-16.64-.879-16.562 7.329-.662 21.969 2.129 44.007-1.047 65.79-3.682 6.875-13.793 4.617-16.864-1.652-1.494-27.079.388-54.045-1.143-80.983-.071-7.482-9.253-12.201-15.374-8.023-.718.458-1.379 1.005-1.959 1.626 0 0-.001.001-.001.001-1.676 1.798-2.698 4.203-2.695 6.85.878 22.531-.485 44.584.233 67.387-2.6 7.465-14.118 6.748-15.901-.674-.598-31.288 1.615-63.311 3.755-94.287 1.243-17.983 2.527-36.579 3.262-54.942.005-.133.008-.245.008-.378.051-2.42 2.16-12.168 3.099-14.872 3.312-6.413 9.251-11.161 18.657-14.924 3.663-1.466 6.125-4.944 6.29-8.885 1.206-20.451.934-42.128.956-62.538l67.562-5.701-.005.504c-.001.04-.001.081-.001.121.014 8.471 3.043 16.595 8.528 22.877.996 1.141 2.058 2.188 3.167 3.155.026 10.759.058 28.753-.043 39.16 0 5.021 3.718 9.268 8.695 9.931 11.386 1.519 21.557 9.091 27.271 20.284 6.601 18.376 16.697 51.608 17.511 68.164-.093 3.622-2.076 6.107-3.747 7.565-2.589 2.261-6.113 3.566-9.678 3.584l-12.103-.126c-.036-.001-.071-.001-.107-.001-5.485 0-9.959 4.417-10.017 9.915 2.512 29.644 8.624 60.371 6.251 89.324zm300.946-71.008c13.369-.217 13.377 20.825.012 20.624l-80.123.172c-5.527.012-10 4.496-9.998 10.023.002 5.526 4.478 10.008 10.005 10.016l39.751.057 20.15-.113c12.479.284 12.52 18.587.028 18.931l-76.599.166c-5.528.012-10.001 4.498-9.998 10.025.004 5.527 4.482 10.008 10.01 10.014l65.397.065c10.169.531 9.243 16.458-.906 15.832l-145.399-6.6c-.151-.007-.301-.011-.452-.011-.026-.001-.052 0-.079 0-14.214 0-26.662-9.083-30.984-22.617-1.325-4.151-5.18-6.969-9.537-6.971l-61.693-.044c.201-18.933-2.067-37.711-4.276-55.983-.439-3.633-.879-7.265-1.298-10.898-.019-.254-.05-.508-.071-.762l.948.01c.035.001.071.001.106.001h.016c8.47-.015 16.594-3.043 22.876-8.527 1.113-.972 2.135-2.006 3.082-3.085l38.518-.063c5.024-.008 9.266-3.737 9.919-8.718 1.872-14.294 13.469-26.689 28.201-30.142 13.726-3.991 49.21-15.123 60.037-14.53 6.651.178 11.115 7.011 11.151 13.424l-.127 12.104c-.058 5.533 4.38 10.065 9.914 10.123 3.425-1.204 79.083-7.237 84.597-7.745 13.543-.996 14.73 20.341 1.069 20.788l-63.543 3.442c-12.872.468-12.304 21.417.562 21.162l78.714-.169h.02zm5.874-167.069c-.007.157-.01.314-.01.472.024 14.24-9.065 26.715-22.619 31.043-4.15 1.326-6.968 5.181-6.971 9.538l-.044 61.269-67.402 5.689.005-.505c0-.04 0-.081 0-.122-.018-10.571-4.649-20.002-11.849-26.142l-.062-38.398c-.008-5.023-3.736-9.265-8.718-9.918-14.294-1.873-26.689-13.47-30.141-28.202-3.961-13.596-15.151-49.341-14.531-60.036.178-6.651 7.01-11.115 13.424-11.152l12.103.127c5.561.084 10.066-4.381 10.125-9.913-1.221-3.641-7.236-79.055-7.746-84.598-1.023-13.567 20.395-14.695 20.787-1.069l3.443 63.543c.467 12.873 21.418 12.303 21.162-.563l-.17-78.713c-.24-13.38 20.824-13.408 20.625-.031l.173 80.123c.012 5.525 4.494 9.998 10.02 9.998h.003c5.527-.002 10.008-4.478 10.016-10.005.03-13.328.087-47.013-.057-59.902-.22-12.283 19.114-12.307 18.931-.028l.166 76.563v.036c.012 5.526 4.494 9.999 10.02 9.998h.006c5.527-.003 10.008-4.482 10.014-10.01l.065-65.396c.292-4.283 3.955-7.576 8.273-7.382 4.368.201 7.759 3.916 7.56 8.287z" fill="#3c122c"/><g fill="#fff"><path d="m52.895 349.993c-5.255 0-9.668-4.094-9.992-9.41-.651-10.681-.388-20.112.804-28.832.749-5.482 5.807-9.316 11.283-8.571 5.483.749 9.32 5.801 8.571 11.284-1.011 7.403-1.226 15.549-.656 24.901.337 5.523-3.868 10.274-9.391 10.611-.208.011-.414.017-.619.017z"/><path d="m63.116 292.838c-1.746 0-3.513-.457-5.121-1.415-4.753-2.834-6.309-8.984-3.476-13.737 1.334-2.238 2.91-4.251 4.685-5.981 3.963-3.863 10.306-3.782 14.169.179 3.864 3.962 3.783 10.305-.178 14.169-.528.515-1.021 1.152-1.462 1.893-1.876 3.146-5.203 4.892-8.617 4.892z"/><path d="m222.39 64.806h-22.393c-5.534 0-10.019-4.486-10.019-10.019s4.486-10.02 10.019-10.02h22.393c5.534 0 10.02 4.486 10.02 10.02s-4.486 10.019-10.02 10.019z"/><path d="m173.198 64.806h-5.391c-5.534 0-10.02-4.486-10.02-10.019s4.486-10.02 10.02-10.02h5.391c5.534 0 10.02 4.486 10.02 10.02s-4.486 10.019-10.02 10.019z"/></g></g></g></svg>